<svg width="21" height="16" viewBox="0 0 21 16" fill="none" xmlns="http://www.w3.org/2000/svg">
<path d="M18.8488 6.18042L18.3805 5.00958L17.55 2.93333C16.8371 1.15125 15.1367 0 13.2171 0H7.92546C6.00629 0 4.30546 1.15125 3.59254 2.93333L2.76212 5.00958L2.29379 6.18042C1.28879 6.5625 0.571289 7.5275 0.571289 8.66667V10.6667C0.571289 11.3383 0.827956 11.9446 1.23796 12.4137V14.6667C1.23796 15.4029 1.83504 16 2.57129 16H3.90462C4.64087 16 5.23796 15.4029 5.23796 14.6667V13.3333H15.9046V14.6667C15.9046 15.4029 16.5017 16 17.238 16H18.5713C19.3075 16 19.9046 15.4029 19.9046 14.6667V12.4137C20.3146 11.945 20.5713 11.3387 20.5713 10.6667V8.66667C20.5713 7.5275 19.8538 6.5625 18.8488 6.18042ZM6.06837 3.92375C6.37212 3.16458 7.10754 2.66667 7.92546 2.66667H13.2171C14.035 2.66667 14.7705 3.16458 15.0742 3.92375L15.9046 6H5.23796L6.06837 3.92375ZM3.90462 10.6583C3.10462 10.6583 2.57129 10.1267 2.57129 9.32917C2.57129 8.53167 3.10462 8 3.90462 8C4.70462 8 5.90462 9.19625 5.90462 9.99375C5.90462 10.7913 4.70462 10.6583 3.90462 10.6583ZM17.238 10.6583C16.438 10.6583 15.238 10.7913 15.238 9.99375C15.238 9.19625 16.438 8 17.238 8C18.038 8 18.5713 8.53167 18.5713 9.32917C18.5713 10.1267 18.038 10.6583 17.238 10.6583Z" fill="#6A4F34"/>
</svg>
