<svg width="13" height="16" viewBox="0 0 13 16" fill="none" xmlns="http://www.w3.org/2000/svg">
<path fill-rule="evenodd" clip-rule="evenodd" d="M1.84322 1.84321C3.02159 0.66484 4.61925 0.00196598 6.28572 0C7.95219 0.00196598 9.54985 0.66484 10.7282 1.84321C11.9066 3.02159 12.5695 4.61924 12.5714 6.28571C12.5734 7.64693 12.1288 8.97121 11.3057 10.0554L11.3051 10.0571C11.3051 10.0571 11.1331 10.2823 11.108 10.3126L6.28572 16L1.46572 10.3154C1.43772 10.2829 1.26629 10.0571 1.26629 10.0571C0.442851 8.97245 -0.0019884 7.64756 6.68171e-06 6.28571C0.00197125 4.61924 0.664847 3.02159 1.84322 1.84321ZM5.01585 8.18622C5.39173 8.43737 5.83365 8.57143 6.28572 8.57143C6.8917 8.57067 7.47264 8.32961 7.90113 7.90112C8.32962 7.47263 8.57068 6.89169 8.57143 6.28571C8.57143 5.83364 8.43738 5.39172 8.18622 5.01584C7.93507 4.63996 7.57809 4.34699 7.16043 4.17399C6.74277 4.00099 6.28318 3.95572 5.8398 4.04392C5.39641 4.13211 4.98914 4.34981 4.66947 4.66947C4.34981 4.98913 4.13212 5.39641 4.04393 5.83979C3.95573 6.28318 4.00099 6.74276 4.174 7.16042C4.347 7.57808 4.63996 7.93506 5.01585 8.18622Z" fill="#6A4F34"/>
</svg>
